<svg width="200" height="43" viewBox="0 0 200 43" fill="none" xmlns="http://www.w3.org/2000/svg">
<path d="M105.011 10.5484C101.902 10.5484 97.3875 11.1915 93.2833 12.1918V41.5059H99.7321V16.5282C101.492 16.2335 103.309 16.0593 104.832 16.0593C111.281 16.0593 112.804 18.2878 112.804 22.9189V41.5059H119.252V21.8069C119.257 14.7106 115.8 10.5484 105.011 10.5484ZM26.7372 35.995C24.9777 36.3478 23.0439 36.58 21.3424 36.58C12.4285 36.58 6.80154 31.4219 6.80154 20.9271C6.80154 11.3121 12.0177 5.85923 21.6327 5.85923C25.7369 5.85923 28.9612 6.56484 31.8328 7.50267C32.4178 5.68506 32.8867 3.51464 33.0073 1.58091C29.9571 0.526964 26.1477 0 21.6327 0C7.91355 0 0 7.62325 0 21.1638C0 33.5923 7.2124 42.4482 20.8735 42.4482C25.2724 42.4482 29.9616 41.6265 33.3021 40.2778V19.4042H26.7372V35.995ZM138.549 10.5484C128.291 10.5484 124.245 17.4661 124.245 26.2013C124.245 36.2272 129.461 42.207 140.251 42.207C143.712 42.207 146.816 41.6801 149.75 40.3314C150.161 38.3976 150.514 36.1692 150.746 34.4677C147.521 35.9325 143.944 36.6961 140.425 36.6961C134.682 36.6961 131.632 34.1729 130.81 28.9568H151.389C151.621 27.2553 151.742 25.7905 151.742 23.9728C151.742 16.5863 147.754 10.5484 138.549 10.5484ZM130.694 23.562C131.221 18.5781 133.624 15.9387 138.197 15.9387C142.654 15.9387 145.23 18.7522 145.23 23.562H130.694ZM173.084 17.0552C173.379 15.3537 173.553 13.5361 173.669 11.5443H163.469V0.464442C161.477 0.464442 159.012 0.759193 157.02 1.40228V32.1856C157.02 39.3399 161.008 42.2115 167.279 42.2115C169.096 42.2115 170.972 41.9793 172.731 41.2737C173.084 39.5722 173.316 37.5804 173.495 35.8208C172.088 36.3478 170.329 36.7006 168.453 36.7006C165.345 36.7006 163.469 35.2358 163.469 31.4219V17.0552H173.084ZM88.0091 17.0552C88.3039 15.3537 88.478 13.5361 88.5941 11.5443H78.3941V0.464442C76.4023 0.464442 73.9371 0.759193 71.9453 1.40228V32.1856C71.9453 39.3399 75.9334 42.2115 82.2035 42.2115C84.0211 42.2115 85.8968 41.9793 87.6563 41.2737C88.0091 39.5722 88.2413 37.5804 88.42 35.8208C87.0132 36.3478 85.2537 36.7006 83.378 36.7006C80.2697 36.7006 78.3941 35.2358 78.3941 31.4219V17.0552H88.0091ZM53.4745 10.5484C43.2163 10.5484 39.1702 17.4661 39.1702 26.2013C39.1702 36.2272 44.3864 42.207 55.176 42.207C58.637 42.207 61.7408 41.6801 64.6749 40.3314C65.0858 38.3976 65.4385 36.1692 65.6708 34.4677C62.4464 35.9325 58.8692 36.6961 55.3501 36.6961C49.607 36.6961 46.5568 34.1729 45.7351 28.9568H66.3139C66.5461 27.2553 66.6667 25.7905 66.6667 23.9728C66.6667 16.5863 62.6786 10.5484 53.4745 10.5484ZM45.6145 23.562C46.1415 18.5781 48.5441 15.9387 53.1172 15.9387C57.5741 15.9387 60.151 18.7522 60.151 23.562H45.6145ZM196.709 17.0552H200V13.7638H196.709V17.0552ZM196.709 10.4725H200V7.18113H196.709V10.4725ZM190.126 3.88978H193.417V0.598426H190.126V3.88978ZM183.543 17.0552H186.835V13.7638H183.543V17.0552ZM190.126 10.4725H193.417V7.18113H190.126V10.4725ZM196.709 0.598426V3.88978H200V0.598426H196.709ZM183.543 10.4725H186.835V7.18113H183.543V10.4725ZM183.543 3.88978H186.835V0.598426H183.543V3.88978ZM190.126 17.0552H193.417V13.7638H190.126V17.0552Z" fill="#EC0000"/>
</svg>
