<svg width="147" height="60" viewBox="0 0 147 60" fill="none" xmlns="http://www.w3.org/2000/svg">
<g clip-path="url(#clip0_2_80)">
<path d="M113.688 59.725V45.5129H116.385V59.725H113.688Z" fill="#FCFF1D"/>
<path d="M123.359 59.9365C122.18 59.9365 121.286 59.6239 120.683 58.9999C120.078 58.3759 119.777 57.4452 119.777 56.2094V50.819H118.049V48.7974H119.777V45.8921H122.39V48.7974H124.835V50.819H122.39V55.9783C122.39 56.6098 122.517 57.0766 122.769 57.3788C123.022 57.6809 123.415 57.8321 123.949 57.8321C124.355 57.8321 124.75 57.7475 125.128 57.5797V59.6224C124.553 59.8308 123.962 59.9365 123.359 59.9365Z" fill="#FCFF1D"/>
<path d="M129.786 60C128.719 60 127.861 59.713 127.216 59.1372C126.57 58.5616 126.247 57.7897 126.247 56.8212C126.247 55.5854 126.738 54.6275 127.722 53.9476C128.705 53.2663 130.103 52.9264 131.916 52.9264C132.07 52.9264 132.225 52.9264 132.38 52.9264C132.535 52.9264 132.683 52.9341 132.823 52.9475C132.781 52.1619 132.556 51.5789 132.149 51.1996C131.741 50.8204 131.13 50.6315 130.315 50.6315C129.275 50.6315 128.236 50.9261 127.196 51.5154V49.4094C128.335 48.8201 129.506 48.5255 130.716 48.5255C132.191 48.5255 133.328 48.9288 134.13 49.7357C134.931 50.5423 135.33 51.6966 135.33 53.1999V59.7265H133.16L133.012 58.4636C132.675 58.9409 132.222 59.3156 131.653 59.5905C131.082 59.8626 130.46 60 129.786 60ZM130.503 58.1462C131.148 58.1462 131.7 57.9151 132.157 57.4512C132.613 56.9874 132.841 56.4269 132.841 55.7667V54.6925C132.701 54.6925 132.557 54.6896 132.409 54.6819C132.261 54.6745 132.111 54.6714 131.955 54.6714C130.915 54.6714 130.119 54.8301 129.564 55.1458C129.009 55.4615 128.732 55.9208 128.732 56.5252C128.732 57.0161 128.894 57.409 129.218 57.7037C129.54 57.9997 129.967 58.1462 130.503 58.1462Z" fill="#FCFF1D"/>
<path d="M140.995 60C139.872 60 138.975 59.6102 138.308 58.8306C137.642 58.051 137.307 57.0101 137.307 55.7034V48.7974H139.92V55.2834C139.92 56.1112 140.092 56.7472 140.435 57.1885C140.78 57.631 141.267 57.8516 141.901 57.8516C142.534 57.8516 143.042 57.6205 143.429 57.1566C143.815 56.6928 144.008 56.0764 144.008 55.3045V48.7974H146.621V59.725H144.345L144.197 58.4408C143.846 58.9455 143.393 59.3321 142.838 59.5982C142.285 59.8655 141.669 60 140.995 60ZM142.892 47.3245H140.596L142.85 44.0398H145.695L142.892 47.3245Z" fill="#FCFF1D"/>
<path d="M145.05 30.0846H112.707C107.994 30.0846 105.997 28.243 105.182 25.8H115.373C122.185 25.8 126.377 22.801 126.377 16.3272C126.377 9.85345 122.185 6.52061 115.373 6.52061H112.135C106.03 6.52061 98.6115 10.068 97.0513 18.5632H87.9362V0H80.2181V18.5647H70.6919C61.5601 18.6101 56.4743 23.2301 55.812 30.0846H39.871C35.1599 30.0846 33.1613 28.243 32.3464 25.8H42.5379C49.3504 25.8 53.5411 22.801 53.5411 16.3272C53.5411 9.85345 49.3487 6.52061 42.5379 6.52061H39.2995C33.1961 6.52061 25.7774 10.068 24.2157 18.5632H17.5301C13.3377 18.5632 9.62152 19.8489 7.57445 22.3719V19.1343H0V45.8392C0 47.3621 0.476239 47.8394 1.95333 47.8394H5.76474C7.19345 47.8394 7.71808 47.3636 7.71808 45.8392V35.3195C7.71808 27.3697 12.7193 25.7986 17.8642 25.7986H24.2867C25.8906 33.6863 32.5007 37.4603 40.1581 37.4603H56.7751C58.6847 42.023 63.2429 44.4116 70.5513 44.4116H74.9795C82.2212 44.4116 88.3172 39.2702 88.3172 31.7011V25.7986H97.1223C98.7264 33.6863 105.336 37.4603 112.992 37.4603H145.052C145.909 37.4603 146.622 36.7473 146.622 35.8423V31.6045C146.621 30.7508 145.907 30.0846 145.05 30.0846ZM39.0138 13.7558H42.7768C44.4928 13.7558 45.6826 14.4705 45.6826 16.1837C45.6826 17.8018 44.4928 18.5632 42.7768 18.5632H32.1332C32.7636 15.8815 34.534 13.7558 39.0138 13.7558ZM80.2181 31.9399C80.2181 34.9388 77.9321 37.081 74.9779 37.081H70.0235C66.0216 37.081 63.4015 35.5099 63.4015 31.5592C63.4015 27.7037 66.0216 25.8 70.0235 25.8H80.2167L80.2181 31.9399ZM111.848 13.7558H115.611C117.325 13.7558 118.517 14.4705 118.517 16.1837C118.517 17.8018 117.325 18.5632 115.611 18.5632H104.967C105.599 15.8815 107.37 13.7558 111.848 13.7558Z" fill="#FCFF1D"/>
</g>
<defs>
<clipPath id="clip0_2_80">
<rect width="147" height="60" fill="white"/>
</clipPath>
</defs>
</svg>
