<svg width="200" height="54" viewBox="0 0 200 54" fill="none" xmlns="http://www.w3.org/2000/svg">
<path d="M3.31058 47.2453C2.37881 46.7593 1.65881 45.7145 1.65881 44.3223C1.65881 42.444 3.16705 40.9132 5.17646 40.9132C5.89646 40.9132 6.54117 41.1222 7.0447 41.4016C10.7059 43.7658 14.5106 44.9491 17.9576 44.9491C21.6894 44.9491 23.8423 43.4183 23.8423 40.9813V40.8428C23.8423 37.9902 19.8235 37.0158 15.3718 35.694C9.77175 34.1632 3.52705 31.9375 3.52705 24.9081V24.7696C3.52705 17.8106 9.4847 13.5657 17.0235 13.5657C21.0423 13.5657 25.28 14.6786 28.9412 16.5592C30.16 17.1837 31.0235 18.2966 31.0235 19.7593C31.0235 21.708 29.4423 23.1683 27.4329 23.1683C26.7153 23.1683 26.2847 23.0298 25.7106 22.7504C22.6235 21.2196 19.4635 20.2476 16.807 20.2476C13.4329 20.2476 11.4941 21.7784 11.4941 23.8633V24.0042C11.4941 26.7183 15.5882 27.8311 20.0376 29.2234C25.567 30.8927 31.8118 33.3274 31.8118 39.9389V40.0797C31.8118 47.8017 25.6376 51.631 17.7412 51.631C12.9318 51.631 7.6894 50.1683 3.31058 47.2453Z" fill="white"/>
<path fill-rule="evenodd" clip-rule="evenodd" d="M52.8612 32.6348V32.771C52.8612 43.2094 61.4047 51.7696 72.9624 51.7696C84.6659 51.7696 93.28 43.0709 93.28 32.6348V32.4939C93.28 21.985 84.7389 13.4272 73.1083 13.4272C61.4777 13.4272 52.8612 22.1283 52.8612 32.6348ZM84.593 32.6324V32.7686C84.593 39.1007 80.1436 44.3903 73.1083 44.3903C66.3577 44.3903 61.5483 39.0326 61.5483 32.6301V32.4892C61.5483 26.089 66 20.8017 72.9624 20.8017C79.7859 20.8017 84.593 26.1595 84.593 32.6301" fill="white"/>
<path d="M103.544 47.0716V29.3666C103.544 25.2227 106.675 21.5859 110.925 21.1328C115.948 20.5951 120.2 24.3939 120.2 29.153V47.0716C120.2 49.3959 122.146 51.2812 124.544 51.2812C126.941 51.2812 128.887 49.3959 128.887 47.0716V29.9911C128.887 20.8816 121.268 13.5 111.873 13.5C102.475 13.5 94.8565 20.8839 94.8565 29.9911V47.0716C94.8565 49.3959 96.8024 51.2812 99.2 51.2812C101.598 51.2812 103.544 49.3959 103.544 47.0716ZM50.4235 21.8465C52.6047 21.8465 54.3718 20.1326 54.3718 18.0196C54.3718 15.9065 52.6047 14.1926 50.4235 14.1926H43.7459V7.96383C43.7459 5.63949 41.8024 3.75418 39.4024 3.75418C37.0024 3.75418 35.0588 5.63949 35.0588 7.96383V38.9622H35.0824C35.3012 45.7263 40.673 51.2507 48.0471 51.7226C48.24 51.7508 48.4377 51.7664 48.64 51.7696H50.3341C52.5647 51.7696 54.3718 50.0157 54.3718 47.8557C54.3718 45.6957 52.5647 43.9419 50.3341 43.9419H49.1553C46.0612 43.9419 43.8447 41.5377 43.7459 38.6264V21.8465H50.4235ZM145.061 31.9516C145.061 33.9472 146.732 35.5672 148.795 35.5672H162.976C165.04 35.5672 166.711 33.9472 166.711 31.9516C166.711 21.4427 159.473 13.4272 149.416 13.4272C137.976 13.4272 130.141 22.1259 130.141 32.6324V32.7733C130.141 43.2094 138.544 51.7672 149.911 51.7672C154.8 51.7672 159.141 50.1942 162.515 47.5881C162.966 47.25 163.335 46.815 163.595 46.3153C163.854 45.8156 163.998 45.2641 164.015 44.7015C164.032 44.139 163.922 43.5798 163.693 43.0655C163.464 42.5511 163.122 42.0948 162.692 41.7303C161.956 41.1112 161.023 40.775 160.061 40.7823C159.099 40.7896 158.171 41.14 157.445 41.7702C155.555 43.4043 153.042 44.3927 150.052 44.3927C143.416 44.3927 138.685 39.035 138.685 32.6324V32.4916C138.685 26.0914 142.426 20.8041 149.273 20.8041C153.798 20.8041 156.976 23.9502 158.219 28.3336H148.795C146.732 28.3336 145.061 29.9536 145.061 31.9492" fill="white"/>
<path fill-rule="evenodd" clip-rule="evenodd" d="M177.454 8.13522V8.19391C177.454 12.6125 181.071 16.2376 185.967 16.2376C190.922 16.2376 194.572 12.5538 194.572 8.13522V8.07417C194.572 3.62504 190.953 0 186.028 0C181.104 0 177.454 3.68609 177.454 8.13522ZM190.892 8.13522V8.19391C190.892 10.8751 189.007 13.115 186.028 13.115C183.169 13.115 181.134 10.8446 181.134 8.13522V8.07417C181.134 5.36478 183.016 3.12496 185.967 3.12496C188.854 3.12496 190.892 5.39296 190.892 8.13522Z" fill="white"/>
<path d="M162.776 8.16339V8.11878C162.776 3.65791 166.24 0 171.205 0C173.628 0 175.268 0.626869 176.607 1.59183C176.821 1.75074 176.995 1.95716 177.115 2.19474C177.235 2.43232 177.298 2.69453 177.299 2.96061C177.299 3.90209 176.513 4.644 175.544 4.644C175.165 4.64024 174.796 4.52241 174.485 4.30591C173.489 3.58983 172.452 3.18365 171.181 3.18365C168.456 3.18365 166.494 5.38356 166.494 8.07417V8.12113C166.494 10.8094 168.409 13.0516 171.181 13.0516C172.682 13.0516 173.675 12.6055 174.692 11.819C174.991 11.5755 175.365 11.4413 175.751 11.4386C176.652 11.4386 177.414 12.157 177.414 13.0304C177.414 13.5704 177.139 13.9954 176.814 14.2654C175.36 15.498 173.652 16.2376 171.066 16.2376C166.308 16.2376 162.776 12.6712 162.776 8.16339ZM197.734 14.1363C197.731 14.3779 197.68 14.6165 197.585 14.8386C197.489 15.0606 197.351 15.2616 197.177 15.4302C197.004 15.5987 196.798 15.7315 196.573 15.8209C196.348 15.9103 196.108 15.9545 195.866 15.9511C195.624 15.9542 195.384 15.9097 195.159 15.8202C194.934 15.7307 194.729 15.5979 194.556 15.4293C194.383 15.2608 194.245 15.0599 194.149 14.838C194.054 14.6161 194.003 14.3777 194 14.1363C194 13.1361 194.835 12.3237 195.866 12.3237C196.896 12.3237 197.734 13.1361 197.734 14.1363Z" fill="white"/>
</svg>
